<svg width="34" height="27" viewBox="0 0 34 27" fill="none" xmlns="http://www.w3.org/2000/svg">
<path d="M30.715 26.8844L3.40004 26.9999C1.5902 27.0104 0.0942064 25.5192 0.0837449 23.7024L5.49182e-05 3.44461C-0.0104066 1.62782 1.47513 0.126076 3.28497 0.115575L30.6 5.51293e-05C32.4098 -0.0104466 33.9058 1.4808 33.9163 3.29759L33.9999 23.5554C34.0104 25.3827 32.5249 26.8844 30.715 26.8844Z" fill="#43454D"/>
<path d="M13.1395 23.3768C12.9931 23.3768 12.8571 23.3033 12.7838 23.1668C12.6792 22.9778 12.7629 22.7362 12.9512 22.6312C13.5161 22.3372 14.2903 21.7806 14.7297 20.8354C15.2946 19.6277 15.1377 18.315 14.8971 18.21C14.8343 18.1785 14.6041 18.3045 14.4577 18.378C14.0915 18.567 13.5789 18.8296 12.9826 18.6301C12.3968 18.4305 12.1143 17.9159 11.9783 17.6639C11.0786 16.0361 10.7857 11.7829 11.7168 9.66159C12.0306 8.95798 12.4491 8.53791 12.9721 8.41189C13.5057 8.28587 13.9451 8.5064 14.3008 8.68493C14.5937 8.83196 14.7401 8.89496 14.8238 8.84245C15.19 8.62192 15.1795 7.2672 14.6564 6.19603C14.2066 5.25087 13.4325 4.70479 12.8571 4.41074C12.6688 4.31622 12.5851 4.07468 12.6897 3.88565C12.7838 3.69662 13.0244 3.61261 13.2128 3.71762C13.8928 4.06418 14.8134 4.71529 15.3574 5.85997C15.9014 6.99416 16.1629 8.94747 15.2214 9.52507C14.7506 9.81911 14.2903 9.58808 13.9346 9.39905C13.6626 9.26253 13.4011 9.126 13.15 9.18901C12.8048 9.27302 12.5641 9.67209 12.4281 9.98714C11.6121 11.8354 11.8632 15.8576 12.6583 17.2858C12.7943 17.5274 12.9512 17.7899 13.2337 17.8844C13.4952 17.9789 13.7463 17.8634 14.102 17.6744C14.4472 17.4959 14.8343 17.2963 15.2423 17.4959C16.1211 17.9159 16.0688 19.8167 15.4411 21.1715C14.9075 22.3266 13.9869 22.9778 13.3069 23.3348C13.2651 23.3663 13.2023 23.3768 13.1395 23.3768Z" fill="#E4D6F3"/>
<path d="M11.9051 10.3758L4.83309 10.4073C4.6134 10.4073 4.43555 10.2287 4.43555 10.0187C4.43555 9.79816 4.6134 9.61964 4.82263 9.61964L11.8946 9.58813C12.1143 9.58813 12.2921 9.76666 12.2921 9.97669C12.3026 10.1972 12.1248 10.3758 11.9051 10.3758Z" fill="#E4D6F3"/>
<path d="M11.9363 17.4749L4.86434 17.5064C4.64465 17.5064 4.4668 17.3279 4.4668 17.1178C4.4668 16.8973 4.64465 16.7188 4.85388 16.7188L11.9259 16.6873C12.1455 16.6873 12.3234 16.8658 12.3234 17.0758C12.3234 17.2859 12.156 17.4749 11.9363 17.4749Z" fill="#E4D6F3"/>
<path d="M21.383 23.3453C21.3202 23.3453 21.2575 23.3348 21.2052 23.3033C20.5252 22.9568 19.6045 22.3057 19.0606 21.161C18.4119 19.8168 18.3492 17.916 19.2279 17.4854C19.6359 17.2859 20.023 17.4854 20.3682 17.6534C20.7239 17.8319 20.975 17.9475 21.2365 17.8529C21.5295 17.7479 21.6968 17.4329 21.8015 17.2438C22.5756 15.8051 22.7953 11.783 21.9688 9.94516C21.8224 9.63011 21.5818 9.23104 21.2365 9.15753C21.0273 9.10502 20.8913 8.89499 20.9436 8.68496C20.9959 8.47492 21.2052 8.3384 21.4144 8.39091C21.9375 8.51693 22.3664 8.92649 22.6802 9.6301C23.6322 11.7409 23.3707 15.9941 22.4919 17.6324C22.3559 17.8844 22.0735 18.4095 21.4981 18.6091C20.9018 18.8191 20.3892 18.5566 20.023 18.3675C19.8765 18.294 19.6359 18.1785 19.5836 18.1995C19.343 18.315 19.207 19.6277 19.7824 20.8249C20.2322 21.7701 21.0064 22.3162 21.5818 22.6102C21.7701 22.7047 21.8538 22.9463 21.7492 23.1353C21.6655 23.2613 21.5295 23.3453 21.383 23.3453Z" fill="#E4D6F3"/>
<path d="M19.7511 8.76896C19.5837 8.76896 19.4372 8.66395 19.3744 8.49592C18.5271 5.96501 20.4834 4.00118 21.1215 3.67563C21.3098 3.57061 21.5504 3.65463 21.655 3.84366C21.7597 4.03269 21.676 4.27423 21.4877 4.37924C21.2052 4.52627 19.4058 6.09102 20.1277 8.24387C20.2009 8.45391 20.0858 8.67445 19.8766 8.74796C19.8347 8.75846 19.7929 8.76896 19.7511 8.76896Z" fill="#E4D6F3"/>
<path d="M29.575 10.3023L22.503 10.3338C22.2833 10.3338 22.1055 10.1552 22.1055 9.94521C22.1055 9.72468 22.2833 9.54615 22.4925 9.54615L29.5645 9.51465C29.7842 9.51465 29.9621 9.69317 29.9621 9.90321C29.9725 10.1237 29.7947 10.3023 29.575 10.3023Z" fill="#E4D6F3"/>
<path d="M29.6058 17.4014L22.5338 17.4329C22.3141 17.4329 22.1362 17.2544 22.1362 17.0443C22.1362 16.8238 22.3141 16.6453 22.5233 16.6453L29.5953 16.6138C29.815 16.6138 29.9928 16.7923 29.9928 17.0023C30.0033 17.2229 29.8254 17.4014 29.6058 17.4014Z" fill="#E4D6F3"/>
</svg>
