<svg width="56" height="17" viewBox="0 0 56 17" fill="none" xmlns="http://www.w3.org/2000/svg">
<path d="M51.5703 0.300781L48.108 0.300781C47.03 0.300781 46.2318 0.601389 45.755 1.65871L39.1001 16.7514H43.8062C43.8062 16.7514 44.5836 14.7197 44.7495 14.2843H50.4922C50.6269 14.8648 51.0312 16.7514 51.0312 16.7514H55.1983L51.5703 0.300781ZM46.0452 10.9154C46.4184 9.97212 47.8178 6.31297 47.8178 6.31297C47.8178 6.30261 48.2013 5.34895 48.419 4.74773L48.7196 6.16785C48.7196 6.16785 49.58 10.0861 49.7562 10.9258H46.0452V10.9154Z" fill="#262833"/>
<path d="M33.1188 4.86159C33.1084 5.63903 34.0724 6.14695 35.648 6.90365C38.2291 8.08536 39.4316 9.49512 39.4108 11.3817C39.3797 14.7921 36.3218 17 31.595 17C29.584 16.9793 27.6456 16.575 26.5986 16.1189L27.231 12.4287L27.8115 12.6982C29.273 13.3098 30.2371 13.5585 32.0304 13.5585C33.3157 13.5585 34.6944 13.0506 34.7047 11.9518C34.7151 11.2262 34.1243 10.7079 32.3828 9.89939C30.6724 9.11159 28.423 7.79512 28.4438 5.4317C28.4645 2.23902 31.595 0 36.0212 0C37.7627 0 39.162 0.362803 40.0431 0.69451L39.4316 4.26037L39.0273 4.07378C38.198 3.74207 37.1303 3.42073 35.6688 3.44146C33.9377 3.44146 33.1188 4.17744 33.1188 4.86159Z" fill="#262833"/>
<path d="M26.5987 0.290283L23.7896 16.7409H19.3115L22.1103 0.290283L26.5987 0.290283Z" fill="#262833"/>
<path d="M10.4902 8.75929C8.99756 4.95502 5.42134 1.79343 0 0.476971L0.0621926 0.145264L7.01767 0.145264C7.96096 0.176361 8.71766 0.476972 8.9768 1.48246L10.4902 8.75929Z" fill="#262833"/>
<path d="M20.3066 0.300781L13.2371 16.7307H8.49986L4.48828 3.01663C7.36999 4.86175 9.82669 7.79529 10.6974 9.83736L11.1743 11.5374L15.5694 0.311149L20.3066 0.311149V0.300781Z" fill="#262833"/>
</svg>
